<svg version="1.1" id="Layer_1" xmlns="http://www.w3.org/2000/svg" xmlns:xlink="http://www.w3.org/1999/xlink" x="0px" y="0px"
	 width="100%" viewBox="0 0 1024 1024" enable-background="new 0 0 1024 1024" xml:space="preserve">
<path fill="#000000" opacity="1.000000" stroke="none"
	d="
M665.187744,486.549011
	C672.353149,461.932556 692.352478,446.793030 717.485107,446.713715
	C728.817261,446.677917 740.150024,446.797760 751.481934,446.737152
	C773.222656,446.620880 790.280151,429.973602 790.805664,408.338409
	C790.971497,401.509308 790.792969,394.672119 790.933655,387.841949
	C791.002563,384.494446 789.728577,383.177185 786.282593,382.969269
	C769.464844,381.954376 760.787231,372.520508 760.778992,355.551697
	C760.773926,345.052612 760.741089,334.553284 760.804565,324.054535
	C760.898438,308.537689 770.647156,298.800812 786.171631,298.717468
	C796.503723,298.662018 806.836487,298.687744 817.168823,298.720490
	C832.331726,298.768555 841.358948,306.079102 842.729919,320.989746
	C843.933105,334.075745 843.937866,347.347168 842.739136,360.432678
	C841.454651,374.454834 832.042480,382.414978 818.028931,383.021759
	C811.209900,383.317017 811.205444,383.340210 811.161560,390.220825
	C811.111694,398.040649 811.201355,405.838501 810.495178,413.669983
	C807.895325,442.504089 782.867676,465.953918 753.881226,466.225403
	C741.883301,466.337769 729.883362,466.204498 717.884644,466.254272
	C697.162598,466.340179 682.880005,480.605743 682.157654,501.343903
	C681.765259,512.609436 683.825073,523.525940 685.482422,534.545105
	C687.977051,551.131165 677.184143,561.579529 660.492065,558.874695
	C641.651489,555.821655 627.320129,545.464539 616.175049,530.527649
	C595.261963,502.499481 592.026611,471.073212 599.138733,437.829407
	C600.065857,433.495789 601.221436,429.211060 602.345642,424.598175
	C597.441345,423.908051 593.463196,426.081635 589.232178,426.530212
	C560.784180,429.546173 534.544067,412.013214 526.674683,384.520386
	C525.288269,379.676697 524.505737,374.814789 524.515991,369.766235
	C524.524048,365.800446 523.703003,362.027832 519.372253,360.367859
	C514.774719,358.605560 510.240967,358.574524 505.993469,361.373566
	C503.263489,363.172607 503.185333,366.052521 503.096466,368.944641
	C502.238464,396.877899 483.755524,419.572357 456.847321,425.669434
	C446.228943,428.075470 435.722321,427.148987 424.768890,423.641418
	C426.241211,430.412659 427.745483,436.487915 428.867798,442.632904
	C435.033173,476.389954 430.245697,507.736389 407.569580,534.749878
	C396.871368,547.494446 383.465607,556.042053 366.676819,558.767151
	C349.326813,561.583313 338.496796,550.753845 341.372467,533.299316
	C343.020355,523.297119 344.896637,513.343018 344.735931,503.099335
	C344.388153,480.931763 330.071899,466.392944 308.027893,466.271118
	C296.529236,466.207581 285.029633,466.318176 273.531067,466.246674
	C241.914215,466.050079 215.909012,440.146790 215.628922,408.611633
	C215.569702,401.946136 215.573792,395.280060 215.554565,388.614227
	C215.543457,384.761322 213.920380,382.747131 209.769638,383.034851
	C194.228500,384.112061 180.973557,374.442505 181.822174,353.870575
	C182.302155,342.235229 180.695938,330.514618 182.615005,318.958435
	C184.706024,306.366669 193.353210,299.056244 206.153885,298.795013
	C217.981308,298.553619 229.818588,298.618164 241.649185,298.753052
	C255.668701,298.912903 265.626282,308.485260 266.044464,322.610931
	C266.404297,334.765869 266.367767,346.945587 266.067078,359.103516
	C265.728088,372.809448 255.595856,382.700958 241.571442,383.006165
	C236.850113,383.108887 234.974396,384.470978 235.268738,389.345917
	C235.838501,398.782745 234.497116,408.278534 237.054306,417.663147
	C241.640747,434.494843 256.618378,446.540344 274.002533,446.705109
	C286.000336,446.818817 298.000275,446.679016 309.999054,446.718597
	C339.923492,446.817383 363.020752,470.056335 363.402802,500.073547
	C363.543457,511.120300 362.425232,522.006836 360.822998,532.887329
	C359.954102,538.787781 362.131195,540.787170 367.830902,539.077454
	C384.256531,534.150146 394.867493,522.439758 402.741547,508.026428
	C410.936066,493.026550 413.649200,476.852234 412.228760,459.764404
	C410.886566,443.618225 406.709198,428.367920 400.166626,413.628113
	C398.140686,409.063873 395.164154,407.194336 390.131653,407.176788
	C373.837463,407.120056 360.164520,397.223572 354.639435,381.950745
	C348.769379,365.724335 352.651794,348.785919 365.157532,338.260773
	C368.691040,335.286896 369.562866,332.564911 368.821503,328.006531
	C358.373260,263.765228 387.465118,204.252350 444.750793,173.373001
	C468.854645,160.380020 494.819092,154.999405 522.326721,156.512192
	C560.890381,158.632996 593.676025,173.350479 620.479614,200.928635
	C644.704590,225.853714 657.990112,255.809982 660.524780,290.677856
	C661.417358,302.955444 660.145508,314.916016 658.557617,326.943573
	C657.965454,331.429352 657.974182,335.013947 662.218811,338.355530
	C674.384094,347.932770 678.412231,365.061737 672.972595,381.062988
	C667.770386,396.365448 654.177246,407.104950 638.587341,407.014954
	C631.700500,406.975159 628.356689,409.695862 625.902344,415.654388
	C618.848938,432.777985 614.160950,450.451294 614.502747,469.004547
	C614.931824,492.293243 622.877808,512.663025 640.505005,528.589722
	C645.877625,533.444092 652.022949,537.138184 659.001221,539.202576
	C664.628296,540.867310 666.768250,538.840271 665.936157,533.065918
	C663.726379,517.730774 661.501343,502.391418 665.187744,486.549011
M406.333496,233.802292
	C388.620941,261.804901 381.580750,292.023010 387.399048,324.917847
	C388.426422,330.726196 392.733185,332.793396 398.522308,329.975250
	C400.268311,329.125305 401.763092,327.678314 403.228882,326.346283
	C419.049652,311.969360 437.211182,305.731049 458.442932,310.744415
	C474.127594,314.448029 486.092499,323.532837 494.651001,337.075989
	C497.244476,341.179871 500.126373,343.386139 505.325317,341.971771
	C510.168701,340.654144 515.334839,340.460907 520.166199,341.832275
	C526.914246,343.747681 530.387756,340.727997 533.975464,335.397400
	C554.881104,304.335632 596.232361,300.000885 623.376526,325.724213
	C624.936523,327.202515 626.536865,328.773834 628.402771,329.768616
	C634.333984,332.930847 638.856628,330.855560 639.992798,324.389465
	C644.968140,296.073639 641.471802,268.862701 627.724915,243.522980
	C601.748657,195.640427 551.913574,170.223419 497.828918,177.201904
	C459.195801,182.186707 428.815308,201.057297 406.333496,233.802292
M568.808533,329.236816
	C549.412537,336.396484 538.557922,355.348663 542.359192,375.688904
	C545.590942,392.981567 561.220886,411.475037 587.630859,408.909454
	C605.981323,407.126831 622.389771,388.562439 622.721130,368.827026
	C623.172852,341.924591 598.338135,320.049377 568.808533,329.236816
M413.219543,342.735474
	C405.249786,353.261383 403.049286,365.233063 405.954407,377.766296
	C409.748596,394.135193 420.232178,405.048096 436.749390,408.315430
	C453.756744,411.679718 468.196259,405.980865 478.117767,391.434723
	C488.054016,376.866913 488.514557,361.390015 479.498535,346.241821
	C465.265625,322.328522 431.068146,320.151581 413.219543,342.735474
M200.847992,358.263824
	C202.432236,362.468445 205.482681,364.685608 209.962494,364.705292
	C219.443649,364.746918 228.928497,364.839722 238.405380,364.625519
	C244.190567,364.494781 247.658112,360.845490 247.729782,355.088928
	C247.847839,345.608978 247.878311,336.124329 247.711380,326.645782
	C247.609192,320.843658 244.118134,317.297760 238.315384,317.180298
	C228.838074,316.988434 219.351761,316.989777 209.874008,317.165924
	C204.121155,317.272858 200.450394,320.804901 200.364120,326.572571
	C200.209991,336.873932 200.472931,347.181549 200.847992,358.263824
M780.797729,320.342957
	C780.215942,321.529358 779.243774,322.674408 779.112976,323.908600
	C777.884705,335.499084 778.014282,347.123810 779.431396,358.664276
	C779.938049,362.790344 783.659119,364.562927 787.614319,364.628601
	C796.927979,364.783264 806.249146,364.823334 815.561157,364.623444
	C821.685791,364.492004 825.587341,360.456970 825.315552,354.323669
	C824.910522,345.185242 826.023987,336.060486 825.129761,326.915710
	C824.490417,320.376556 821.687927,317.231598 815.061401,317.132751
	C806.412170,317.003662 797.759766,317.103210 789.108887,317.066986
	C786.174622,317.054688 783.496521,317.663788 780.797729,320.342957
M639.801941,350.371033
	C638.024292,351.726074 638.279175,353.529297 638.693420,355.372284
	C640.698975,364.296997 640.472107,373.173431 638.361206,382.067261
	C637.974426,383.696747 636.441589,385.740082 638.267639,387.187866
	C640.126526,388.661621 642.435669,387.892761 644.470703,387.156830
	C657.135803,382.576904 661.460571,363.841248 651.975708,354.224243
	C648.900391,351.106079 645.250671,348.745056 639.801941,350.371033
M386.437469,387.866669
	C389.620178,387.899780 389.919708,386.104523 389.261475,383.560547
	C386.856812,374.267456 386.469788,364.941132 388.478058,355.486877
	C389.546692,350.456055 387.301910,348.619446 382.337891,350.004791
	C374.601929,352.163666 369.963684,359.191040 370.172607,368.436340
	C370.390411,378.075562 376.542877,385.775452 386.437469,387.866669
z"/>
<path fill="#000000" opacity="1.000000" stroke="none"
	d="
M201.702515,724.268677
	C213.720749,723.080078 213.840958,723.078735 213.708328,710.995300
	C213.437973,686.363464 222.787430,666.898926 244.442139,654.321594
	C258.516205,646.147156 273.999298,644.773865 289.929199,646.156616
	C305.443695,647.503296 320.262177,652.253662 335.459198,655.128662
	C353.445923,658.531433 371.548859,659.551819 389.515015,655.245544
	C415.467102,649.025085 432.060486,632.194275 441.639709,607.870544
	C443.403839,603.391113 444.617340,598.690369 445.990784,594.063782
	C446.492920,592.372314 447.534088,590.327576 445.505188,589.069031
	C443.752411,587.981812 442.374176,589.679565 441.105133,590.592896
	C429.381165,599.030457 416.789886,605.704285 402.861450,609.726440
	C362.856445,621.279114 319.717499,611.151611 294.146515,576.173889
	C287.998901,567.764832 279.455322,563.220886 268.931488,563.005798
	C259.103333,562.804871 249.267151,562.986145 239.439468,562.771606
	C235.278351,562.680725 234.716354,565.753540 233.602280,568.464539
	C227.673370,582.892029 217.016327,591.561646 201.682526,594.170593
	C179.642715,597.920532 158.726532,582.222290 155.708084,559.902710
	C152.916687,539.262024 165.084442,520.104004 184.396362,514.733215
	C204.606064,509.112762 225.019852,518.859131 233.198334,538.401123
	C234.919678,542.514160 237.242065,543.872253 241.483307,543.745178
	C249.641449,543.500854 257.816986,543.862671 265.977081,543.653259
	C284.359558,543.181458 299.010895,550.389038 310.008698,564.941406
	C319.105042,576.977783 330.334259,586.194153 344.770966,590.722046
	C373.772491,599.818054 400.673492,594.528015 425.576141,577.705322
	C435.199036,571.204651 443.039734,562.808716 450.208282,553.752319
	C450.518494,553.360413 450.803711,552.948303 451.120056,552.561646
	C454.241516,548.746033 457.824860,545.959473 463.158173,547.593201
	C467.696716,548.983582 470.048981,552.773438 470.217163,559.056335
	C470.576385,572.475647 468.564392,585.642700 465.165680,598.548401
	C459.818695,618.852112 450.857361,637.183044 435.269989,651.863342
	C419.826965,666.407654 401.170471,673.458496 380.559662,676.234619
	C356.427460,679.485046 333.231750,674.127258 309.976868,668.777222
	C295.878754,665.533813 281.676025,662.564636 267.038849,666.046143
	C247.138702,670.779419 234.452866,685.702942 233.462799,706.119019
	C233.253159,710.442200 233.446350,714.783508 233.363983,719.114746
	C233.299545,722.503540 234.885376,723.931946 238.239777,723.865540
	C240.895187,723.812988 243.609985,723.782166 246.206573,724.250732
	C257.746490,726.332642 265.399017,735.309998 265.824524,747.977844
	C266.215942,759.629761 266.252716,771.316101 265.850342,782.966675
	C265.349579,797.465820 256.679810,806.653564 242.111221,807.526367
	C229.991302,808.252441 217.771500,808.275330 205.644241,807.659058
	C192.074112,806.969482 183.832779,799.832092 182.449234,786.586060
	C180.965927,772.384888 180.923950,757.966125 182.565948,743.724243
	C183.818512,732.860168 190.642838,726.570007 201.702515,724.268677
M237.150406,742.042969
	C228.318375,742.032654 219.485214,741.930603 210.654694,742.041382
	C203.678375,742.128845 200.288635,745.583557 200.213898,752.612305
	C200.119995,761.443176 200.094543,770.277710 200.240768,779.107239
	C200.347336,785.542969 204.075333,789.395081 210.535965,789.542297
	C219.363113,789.743408 228.203781,789.767822 237.028687,789.517029
	C244.066315,789.317078 247.609726,785.429993 247.679474,778.351929
	C247.763214,769.853943 247.764420,761.354004 247.682053,752.856018
	C247.612503,745.680542 245.161835,743.023438 237.150406,742.042969
M216.741806,560.067810
	C219.362198,550.968445 216.983994,543.128113 209.938644,537.118286
	C202.903656,531.117310 194.735733,529.904663 186.243103,534.032715
	C178.023865,538.027832 173.786560,544.888245 173.464371,553.919556
	C173.114136,563.736694 181.274841,573.661194 190.855698,575.589233
	C202.054459,577.842712 212.302216,571.955566 216.741806,560.067810
z"/>
<path fill="#000000" opacity="1.000000" stroke="none"
	d="
M618.924255,669.230225
	C589.616455,657.006714 573.198425,634.155457 563.886292,605.273682
	C559.311218,591.083801 557.034180,576.482300 556.841858,561.577881
	C556.812195,559.279419 557.129333,556.912048 557.699829,554.682312
	C559.557251,547.422485 566.985168,544.842468 572.918213,549.465271
	C574.850586,550.970947 576.389038,553.039062 577.915894,554.999268
	C594.588562,576.403809 615.784607,590.535156 642.994751,594.084351
	C671.882751,597.852478 697.093079,590.302917 715.383240,566.514343
	C727.534912,550.709595 742.768677,542.846924 762.650940,543.637512
	C769.638000,543.915344 776.655273,543.455200 783.640137,543.759216
	C788.121155,543.954163 790.468201,542.321289 792.366211,538.184753
	C803.989380,512.853638 832.780334,505.772705 853.969055,522.815491
	C866.206116,532.658142 871.366394,550.454529 866.430115,565.790161
	C861.162537,582.155151 847.113525,593.365967 830.828674,594.199280
	C814.392578,595.040405 799.010071,586.174255 792.933533,570.859131
	C790.227600,564.039185 786.519348,562.346008 779.900391,562.859924
	C773.109863,563.387146 766.246094,563.015259 759.414917,562.965149
	C748.731750,562.886841 739.863342,566.720276 733.382935,575.320007
	C723.161377,588.884277 710.722717,599.603394 694.997620,606.363281
	C673.323120,615.680725 651.078430,616.243103 628.447693,610.861328
	C614.351746,607.509277 601.461243,601.439148 589.557495,593.198853
	C587.126160,591.515747 584.843689,589.504822 581.995300,588.695374
	C580.236328,589.461853 580.309570,590.827820 580.643372,592.144592
	C586.983643,617.151611 598.386658,638.478516 622.944092,650.227356
	C632.084473,654.600281 641.825073,656.862549 651.822021,657.599548
	C668.543213,658.832397 685.032898,657.053772 701.349243,653.072876
	C718.326355,648.930786 735.336914,644.561401 753.076416,645.947388
	C778.638794,647.944458 797.532593,659.876831 808.007996,683.730774
	C812.465332,693.880737 812.489929,704.786743 812.331970,715.660217
	C812.216614,723.605957 812.310425,723.607361 820.047791,723.859924
	C832.032654,724.251160 841.145630,731.799072 842.421387,743.859924
	C843.961975,758.424988 844.180237,773.158691 842.281128,787.699829
	C840.740417,799.497437 831.269348,807.097656 819.341248,807.269165
	C807.846558,807.434387 796.346741,807.403381 784.850952,807.284851
	C771.515320,807.147339 761.265381,797.359924 760.915955,784.045532
	C760.592651,771.723755 760.597046,759.381470 760.892944,747.058655
	C761.213318,733.716370 771.297791,724.154968 784.804504,723.804871
	C792.692688,723.600403 792.722717,723.600464 792.729980,715.591980
	C792.736633,708.272583 793.038330,700.945984 790.656433,693.819458
	C785.278259,677.727478 771.287781,666.997375 754.411011,665.162720
	C739.998291,663.595886 726.288391,666.702881 712.540466,669.970947
	C691.072754,675.074219 669.514160,679.035645 647.299500,676.269714
	C637.692200,675.073486 628.274841,673.078796 618.924255,669.230225
M816.042847,742.087280
	C806.898865,742.081909 797.753174,741.969849 788.611389,742.108521
	C782.428345,742.202271 778.619019,745.683105 778.578918,751.534424
	C778.512817,761.170105 778.667358,770.814758 779.047546,780.443115
	C779.267822,786.022156 782.386292,788.827942 788.076355,788.914246
	C797.218323,789.053101 806.365601,789.064575 815.507385,788.923218
	C821.558472,788.829712 825.290771,785.430054 825.469910,779.391724
	C825.745667,770.096252 825.736816,760.778748 825.427673,751.484619
	C825.238892,745.810425 822.708801,743.457397 816.042847,742.087280
M807.355408,551.026245
	C807.321960,552.022766 807.252258,553.019592 807.260559,554.015747
	C807.351868,564.861145 815.361206,574.290222 825.634888,575.662476
	C836.654175,577.134399 846.709595,570.188660 849.578979,559.123169
	C852.262634,548.774231 846.545044,537.529053 836.570496,533.538208
	C824.027466,528.519714 811.871765,535.471252 807.355408,551.026245
z"/>
<path fill="#000000" opacity="1.000000" stroke="none"
	d="
M401.338806,704.190369
	C411.705139,699.321045 422.501801,697.103638 433.108765,694.267090
	C465.231995,685.676453 485.335754,664.331116 496.915192,633.998596
	C498.993225,628.555237 500.807343,623.011536 502.844696,617.552002
	C504.991516,611.799072 508.935822,608.666260 513.700745,608.738403
	C518.440735,608.810181 522.375000,611.989197 524.307800,617.874329
	C528.263733,629.919800 532.633423,641.756165 539.033691,652.780701
	C551.790222,674.753906 570.876282,688.144043 595.143738,694.663757
	C604.302368,697.124268 613.585510,699.142029 622.417053,702.747253
	C659.031189,717.693665 675.449158,757.895813 659.014160,793.669556
	C650.442932,812.326538 634.767395,822.770569 615.440979,828.213989
	C614.024902,828.612793 612.466370,828.618408 610.974487,828.615112
	C606.244324,828.604614 603.004333,826.373413 601.710327,821.781433
	C600.558411,817.693726 602.822205,812.917114 607.022156,811.020447
	C610.498047,809.450684 614.275024,808.559631 617.798401,807.081360
	C636.134033,799.387756 646.128784,785.247925 646.292114,765.677917
	C646.430115,749.141357 638.893188,735.563110 624.871460,725.999756
	C615.012695,719.275696 603.736084,716.263672 592.434753,713.448608
	C565.190430,706.662292 542.776733,692.866821 526.890442,669.295837
	C526.250183,668.345886 525.733643,667.234253 524.306824,667.016235
	C522.571655,668.165222 523.312317,669.989563 523.309631,671.500854
	C523.262939,697.495972 523.379822,723.491943 523.188477,749.485718
	C523.153259,754.277710 524.626831,755.807739 529.449158,755.775391
	C545.646790,755.666687 555.215027,765.393372 555.279297,781.567017
	C555.321045,792.064819 555.324707,802.563416 555.255249,813.061096
	C555.148254,829.231506 545.104858,839.309631 529.060791,839.381226
	C518.396301,839.428772 507.731049,839.468567 497.066864,839.396912
	C483.324646,839.304688 473.187927,830.768005 472.317078,817.033997
	C471.444305,803.269409 471.125854,789.381775 472.635742,775.611450
	C473.852844,764.511414 482.651947,756.563354 493.774933,755.775513
	C495.268494,755.669678 496.787262,755.574890 498.269775,755.722229
	C502.735382,756.166016 504.188385,754.012634 503.990723,749.815430
	C503.779327,745.326050 503.934692,740.819275 503.938385,736.320068
	C503.955719,715.157532 503.996124,693.994934 503.960846,672.832520
	C503.957672,670.923035 504.502075,668.850647 503.168915,667.084778
	C501.158966,666.906921 500.668243,668.530457 499.862610,669.694580
	C483.852600,692.828003 461.900482,706.980103 434.638275,713.448425
	C422.507751,716.326538 410.259888,719.222839 400.185516,727.349304
	C385.064270,739.547058 378.058929,755.326660 381.596283,774.481262
	C384.934509,792.557312 397.118103,803.336365 414.228271,808.931702
	C416.436707,809.653992 418.787689,810.200867 420.745239,811.374817
	C424.645020,813.713379 426.815155,817.277893 425.438812,821.899292
	C424.107056,826.371216 420.817322,828.895142 416.022888,828.463440
	C402.136963,827.212646 390.539520,820.701904 380.744812,811.347290
	C353.779907,785.594177 355.694122,739.522278 384.349304,715.297180
	C389.470581,710.967590 394.925568,707.208679 401.338806,704.190369
M533.078308,775.306335
	C530.861938,774.050476 528.520874,773.389343 525.932434,773.449219
	C517.613953,773.641663 509.292511,773.708557 500.974213,773.907654
	C493.244263,774.092590 490.120667,777.237732 490.049347,784.971008
	C489.974182,793.128784 490.009705,801.287964 490.047668,809.446289
	C490.088074,818.137756 493.325409,821.452271 502.170685,821.596130
	C509.994141,821.723389 517.822632,821.711914 525.646484,821.595825
	C533.796997,821.474915 537.453430,817.753845 537.560974,809.525696
	C537.665466,801.534912 537.619263,793.541870 537.608704,785.549866
	C537.603699,781.772400 536.882568,778.251282 533.078308,775.306335
z"/>
<path fill="#000000" opacity="1.000000" stroke="none"
	d="
M499.263611,438.740479
	C510.030762,448.303101 522.982910,446.658691 530.741638,435.046448
	C534.063293,430.074890 538.385193,428.558289 542.464294,430.932587
	C546.677002,433.384735 548.128235,438.586151 545.332825,443.592102
	C538.551758,455.735474 528.241333,462.308594 514.101196,462.415100
	C499.846527,462.522491 489.074341,456.433258 482.066833,444.068512
	C479.141144,438.906067 480.682526,433.280029 485.041718,430.972778
	C489.491760,428.617401 493.508789,430.176117 497.033264,435.604889
	C497.666351,436.580048 498.361938,437.514648 499.263611,438.740479
z"/>
<path fill="#000000" opacity="1.000000" stroke="none"
	d="
M603.625732,286.425110
	C606.889771,289.965912 608.260071,293.576447 605.067261,297.385468
	C601.823303,301.255585 598.071655,300.249084 594.340576,297.910461
	C587.426636,293.576904 580.414307,293.169220 573.026123,296.972504
	C567.834839,299.644867 563.824524,298.584198 561.773193,294.635590
	C559.825012,290.885315 561.459778,286.746094 566.084229,283.720428
	C577.423950,276.301086 591.755493,277.244415 603.625732,286.425110
z"/>
<path fill="#000000" opacity="1.000000" stroke="none"
	d="
M434.857849,296.851257
	C427.899292,300.742401 423.861969,300.532684 421.504852,296.362885
	C419.243744,292.363007 421.227112,287.406830 426.906769,284.035675
	C438.101532,277.391022 449.506866,276.746887 460.869232,283.674286
	C465.846527,286.708862 467.423401,291.065643 465.214569,294.878784
	C463.057587,298.602478 459.020111,299.505859 453.810150,296.828949
	C447.534546,293.604492 441.428436,293.498596 434.857849,296.851257
z"/>
<path fill="#000000" opacity="1.000000" stroke="none"
	d="
M598.020874,377.697937
	C592.776001,393.447479 578.700256,399.820129 566.398010,392.359711
	C555.404114,385.692719 552.006653,369.611633 559.243652,358.496399
	C565.930664,348.225891 579.614319,345.532837 589.377563,352.944458
	C597.425476,359.053802 599.956787,367.479889 598.020874,377.697937
M579.579224,368.944153
	C583.329834,366.986572 583.780884,363.866364 581.965271,360.548157
	C580.583374,358.022583 578.207214,356.803619 575.206421,358.313416
	C572.127075,359.862793 571.506104,362.557434 572.362793,365.490784
	C573.274536,368.612549 575.591919,369.969208 579.579224,368.944153
z"/>
<path fill="#000000" opacity="1.000000" stroke="none"
	d="
M470.122314,362.198303
	C472.988068,369.614197 472.826843,376.513916 469.208344,383.260925
	C464.386414,392.251770 455.678589,396.791840 446.517426,395.031464
	C437.304901,393.261261 429.707489,384.820831 428.791382,375.141937
	C428.122040,368.069885 429.592896,361.517181 434.426605,356.081635
	C444.983490,344.210358 461.550690,346.924927 470.122314,362.198303
M454.967529,360.743958
	C453.376953,358.700592 451.622772,356.917145 448.716705,358.004395
	C446.369934,358.882416 444.860870,360.640656 444.548370,363.137329
	C444.254059,365.488983 445.453339,367.286957 447.297729,368.633240
	C449.099823,369.948700 450.995972,369.950134 452.861938,368.746246
	C455.632233,366.958954 456.235626,364.420074 454.967529,360.743958
z"/>
</svg>